<?xml version="1.0" standalone="no"?>
<!DOCTYPE svg PUBLIC "-//W3C//DTD SVG 20010904//EN"
 "http://www.w3.org/TR/2001/REC-SVG-20010904/DTD/svg10.dtd">
<svg version="1.0" xmlns="http://www.w3.org/2000/svg"
 width="225.000000pt" height="225.000000pt" viewBox="0 0 225.000000 225.000000"
 preserveAspectRatio="xMidYMid meet">

<g transform="translate(0.000000,225.000000) scale(0.100000,-0.100000)"
fill="#000000" stroke="none">
<path d="M0 1125 l0 -1125 1125 0 1125 0 0 1125 0 1125 -1125 0 -1125 0 0
-1125z m1365 789 c269 -73 472 -279 540 -549 25 -98 23 -265 -4 -368 -39 -148
-133 -296 -251 -393 -55 -45 -219 -134 -247 -134 -13 0 -14 9 -9 53 10 75 37
177 47 177 19 0 136 122 168 174 140 233 115 510 -64 690 -103 105 -227 156
-376 156 -134 0 -275 -54 -364 -140 l-30 -29 -50 33 c-28 18 -72 42 -99 53
l-50 21 61 60 c104 105 231 173 383 207 81 18 259 13 345 -11z m-813 -333 c61
-20 130 -61 257 -154 l43 -32 137 0 c75 0 141 -4 148 -8 7 -4 15 -35 19 -69 7
-59 8 -61 46 -76 39 -15 56 -46 44 -77 -4 -13 -2 -14 14 -5 29 16 60 -4 60
-38 0 -40 12 -52 61 -63 49 -11 79 -34 79 -59 0 -10 -18 -62 -39 -116 -103
-258 -143 -503 -107 -656 l13 -58 -48 0 c-47 0 -48 1 -58 38 -43 156 -9 408
88 649 40 101 40 123 0 123 -28 0 -49 28 -49 66 0 32 -2 35 -22 29 -13 -4 -27
-8 -32 -9 -8 -1 -20 24 -32 72 -2 6 -12 12 -23 12 -39 0 -63 33 -70 95 -6 56
-8 60 -31 58 -163 -16 -181 -16 -226 2 -25 9 -81 44 -124 76 -101 76 -161 106
-242 119 -68 10 -177 1 -232 -20 -44 -16 -47 -13 -44 43 l3 52 65 17 c83 23
210 18 302 -11z m-5 -181 c91 -46 96 -53 83 -138 -34 -220 84 -453 280 -552
68 -35 152 -60 199 -60 57 0 61 -6 45 -80 -7 -36 -14 -80 -14 -98 l0 -33 -72
6 c-310 29 -579 259 -653 560 -29 115 -20 339 16 408 14 25 48 21 116 -13z"/>
</g>
</svg>
